<mxfile host="app.diagrams.net" modified="2023-09-10T23:21:56.047Z" agent="Mozilla/5.0 (Macintosh; Intel Mac OS X 10_15_7) AppleWebKit/537.36 (KHTML, like Gecko) Chrome/116.0.0.0 Safari/537.36" etag="s8SL6EIVJbftTC8tAJxN" version="21.7.4" type="device">
  <diagram name="Page-1" id="5ouVjjnHdRIrpuXSdQm9">
    <mxGraphModel dx="881" dy="567" grid="1" gridSize="10" guides="1" tooltips="1" connect="1" arrows="1" fold="1" page="1" pageScale="1" pageWidth="1700" pageHeight="1100" math="0" shadow="0">
      <root>
        <mxCell id="0" />
        <mxCell id="1" parent="0" />
        <mxCell id="1ZqsdgjK_K13dOiktOoO-1" value="&lt;b style=&quot;font-size: 14px;&quot; id=&quot;docs-internal-guid-42980b66-7fff-49a1-b4a3-2a83f0d7e2ef&quot;&gt;GitHub&lt;/b&gt;" style="text;whiteSpace=wrap;html=1;fillColor=#CCE5FF;align=left;fontSize=14;strokeColor=default;" parent="1" vertex="1">
          <mxGeometry x="380" y="80" width="360" height="260" as="geometry" />
        </mxCell>
        <mxCell id="1ZqsdgjK_K13dOiktOoO-36" style="edgeStyle=orthogonalEdgeStyle;curved=1;rounded=0;orthogonalLoop=1;jettySize=auto;html=1;entryX=0;entryY=0.5;entryDx=0;entryDy=0;" parent="1" source="1ZqsdgjK_K13dOiktOoO-2" target="1ZqsdgjK_K13dOiktOoO-34" edge="1">
          <mxGeometry relative="1" as="geometry" />
        </mxCell>
        <mxCell id="1ZqsdgjK_K13dOiktOoO-2" value="&lt;font style=&quot;font-size: 14px;&quot; face=&quot;Courier New&quot;&gt;main&lt;br style=&quot;font-size: 14px;&quot;&gt;&lt;/font&gt;branch" style="rounded=0;whiteSpace=wrap;html=1;fontSize=14;fillColor=#FFD966;" parent="1" vertex="1">
          <mxGeometry x="500" y="110" width="120" height="40" as="geometry" />
        </mxCell>
        <mxCell id="1ZqsdgjK_K13dOiktOoO-20" style="edgeStyle=orthogonalEdgeStyle;curved=1;rounded=0;orthogonalLoop=1;jettySize=auto;html=1;entryX=0.5;entryY=0;entryDx=0;entryDy=0;" parent="1" source="1ZqsdgjK_K13dOiktOoO-3" target="1ZqsdgjK_K13dOiktOoO-8" edge="1">
          <mxGeometry relative="1" as="geometry" />
        </mxCell>
        <mxCell id="1ZqsdgjK_K13dOiktOoO-37" style="edgeStyle=orthogonalEdgeStyle;curved=1;rounded=0;orthogonalLoop=1;jettySize=auto;html=1;entryX=0;entryY=0.5;entryDx=0;entryDy=0;" parent="1" source="1ZqsdgjK_K13dOiktOoO-3" target="1ZqsdgjK_K13dOiktOoO-35" edge="1">
          <mxGeometry relative="1" as="geometry" />
        </mxCell>
        <mxCell id="1ZqsdgjK_K13dOiktOoO-47" style="edgeStyle=orthogonalEdgeStyle;curved=1;rounded=0;orthogonalLoop=1;jettySize=auto;html=1;entryX=0.5;entryY=1;entryDx=0;entryDy=0;" parent="1" source="1ZqsdgjK_K13dOiktOoO-3" target="1ZqsdgjK_K13dOiktOoO-2" edge="1">
          <mxGeometry relative="1" as="geometry" />
        </mxCell>
        <mxCell id="1ZqsdgjK_K13dOiktOoO-3" value="&lt;font face=&quot;Courier New&quot; style=&quot;font-size: 14px;&quot;&gt;development&lt;/font&gt;&lt;br style=&quot;font-size: 14px;&quot;&gt;branch" style="rounded=0;whiteSpace=wrap;html=1;fontSize=14;fillColor=#FFD966;" parent="1" vertex="1">
          <mxGeometry x="500" y="190" width="120" height="40" as="geometry" />
        </mxCell>
        <mxCell id="1ZqsdgjK_K13dOiktOoO-44" style="edgeStyle=orthogonalEdgeStyle;curved=1;rounded=0;orthogonalLoop=1;jettySize=auto;html=1;exitX=0.5;exitY=0;exitDx=0;exitDy=0;entryX=0.5;entryY=1;entryDx=0;entryDy=0;" parent="1" source="1ZqsdgjK_K13dOiktOoO-4" target="1ZqsdgjK_K13dOiktOoO-12" edge="1">
          <mxGeometry relative="1" as="geometry" />
        </mxCell>
        <mxCell id="1ZqsdgjK_K13dOiktOoO-4" value="&lt;font style=&quot;font-size: 14px;&quot;&gt;&lt;font face=&quot;Courier New&quot;&gt;working #1&lt;/font&gt;&lt;br style=&quot;font-size: 14px;&quot;&gt;branch&lt;br style=&quot;font-size: 14px;&quot;&gt;&lt;/font&gt;" style="rounded=0;whiteSpace=wrap;html=1;fontSize=14;fillColor=#FFD966;" parent="1" vertex="1">
          <mxGeometry x="400" y="270" width="120" height="40" as="geometry" />
        </mxCell>
        <mxCell id="1ZqsdgjK_K13dOiktOoO-5" value="&lt;font style=&quot;font-size: 14px;&quot;&gt;&lt;font face=&quot;Courier New&quot;&gt;working #n&lt;/font&gt;&lt;br style=&quot;font-size: 14px;&quot;&gt;branch&lt;br style=&quot;font-size: 14px;&quot;&gt;&lt;/font&gt;" style="rounded=0;whiteSpace=wrap;html=1;fontSize=14;fillColor=#FFD966;" parent="1" vertex="1">
          <mxGeometry x="600" y="270" width="120" height="40" as="geometry" />
        </mxCell>
        <mxCell id="1ZqsdgjK_K13dOiktOoO-6" value="&lt;b style=&quot;font-size: 14px;&quot; id=&quot;docs-internal-guid-42980b66-7fff-49a1-b4a3-2a83f0d7e2ef&quot;&gt;Your&lt;br&gt;Local Repo&lt;/b&gt;" style="text;whiteSpace=wrap;html=1;fillColor=#CCE5FF;align=left;fontSize=14;strokeColor=default;" parent="1" vertex="1">
          <mxGeometry x="380" y="400" width="360" height="110" as="geometry" />
        </mxCell>
        <mxCell id="1ZqsdgjK_K13dOiktOoO-32" style="edgeStyle=orthogonalEdgeStyle;curved=1;rounded=0;orthogonalLoop=1;jettySize=auto;html=1;entryX=0.5;entryY=1;entryDx=0;entryDy=0;" parent="1" source="1ZqsdgjK_K13dOiktOoO-7" target="1ZqsdgjK_K13dOiktOoO-11" edge="1">
          <mxGeometry relative="1" as="geometry" />
        </mxCell>
        <mxCell id="1ZqsdgjK_K13dOiktOoO-7" value="&lt;font style=&quot;font-size: 14px;&quot;&gt;&lt;font face=&quot;Courier New&quot;&gt;working #1&lt;/font&gt;&lt;br style=&quot;font-size: 14px;&quot;&gt;branch&lt;br style=&quot;font-size: 14px;&quot;&gt;&lt;/font&gt;" style="rounded=0;whiteSpace=wrap;html=1;fontSize=14;fillColor=#FFD966;" parent="1" vertex="1">
          <mxGeometry x="500" y="430" width="120" height="40" as="geometry" />
        </mxCell>
        <mxCell id="1ZqsdgjK_K13dOiktOoO-25" style="edgeStyle=orthogonalEdgeStyle;curved=1;rounded=0;orthogonalLoop=1;jettySize=auto;html=1;entryX=1;entryY=0.5;entryDx=0;entryDy=0;exitX=0.5;exitY=1;exitDx=0;exitDy=0;" parent="1" source="1ZqsdgjK_K13dOiktOoO-8" target="1ZqsdgjK_K13dOiktOoO-6" edge="1">
          <mxGeometry relative="1" as="geometry" />
        </mxCell>
        <mxCell id="1ZqsdgjK_K13dOiktOoO-8" value="1" style="ellipse;whiteSpace=wrap;html=1;aspect=fixed;fontSize=15;fillColor=#FF99CC;" parent="1" vertex="1">
          <mxGeometry x="774" y="333" width="20" height="20" as="geometry" />
        </mxCell>
        <mxCell id="1ZqsdgjK_K13dOiktOoO-31" style="edgeStyle=orthogonalEdgeStyle;curved=1;rounded=0;orthogonalLoop=1;jettySize=auto;html=1;entryX=0.5;entryY=1;entryDx=0;entryDy=0;" parent="1" source="1ZqsdgjK_K13dOiktOoO-11" target="1ZqsdgjK_K13dOiktOoO-4" edge="1">
          <mxGeometry relative="1" as="geometry" />
        </mxCell>
        <mxCell id="1ZqsdgjK_K13dOiktOoO-11" value="4" style="ellipse;whiteSpace=wrap;html=1;aspect=fixed;fontSize=15;fillColor=#FF99CC;" parent="1" vertex="1">
          <mxGeometry x="450" y="359" width="20" height="20" as="geometry" />
        </mxCell>
        <mxCell id="1ZqsdgjK_K13dOiktOoO-24" value="Clone" style="text;html=1;strokeColor=none;fillColor=#FFFFFF;align=center;verticalAlign=middle;whiteSpace=wrap;rounded=0;fontSize=14;" parent="1" vertex="1">
          <mxGeometry x="759" y="353" width="50" height="30" as="geometry" />
        </mxCell>
        <mxCell id="1ZqsdgjK_K13dOiktOoO-26" style="edgeStyle=orthogonalEdgeStyle;curved=1;rounded=0;orthogonalLoop=1;jettySize=auto;html=1;entryX=1;entryY=0.5;entryDx=0;entryDy=0;exitX=0.5;exitY=1;exitDx=0;exitDy=0;" parent="1" source="1ZqsdgjK_K13dOiktOoO-7" target="1ZqsdgjK_K13dOiktOoO-7" edge="1">
          <mxGeometry relative="1" as="geometry" />
        </mxCell>
        <mxCell id="1ZqsdgjK_K13dOiktOoO-9" value="2" style="ellipse;whiteSpace=wrap;html=1;aspect=fixed;fontSize=15;fillColor=#FF99CC;" parent="1" vertex="1">
          <mxGeometry x="630" y="460" width="20" height="20" as="geometry" />
        </mxCell>
        <mxCell id="1ZqsdgjK_K13dOiktOoO-27" value="Frequent, atomic commits" style="text;html=1;strokeColor=none;fillColor=none;align=center;verticalAlign=middle;whiteSpace=wrap;rounded=0;fontSize=14;shadow=1;" parent="1" vertex="1">
          <mxGeometry x="642" y="443" width="74" height="53" as="geometry" />
        </mxCell>
        <mxCell id="1ZqsdgjK_K13dOiktOoO-29" value="" style="edgeStyle=orthogonalEdgeStyle;curved=1;rounded=0;orthogonalLoop=1;jettySize=auto;html=1;entryX=0.5;entryY=0;entryDx=0;entryDy=0;" parent="1" source="1ZqsdgjK_K13dOiktOoO-3" target="1ZqsdgjK_K13dOiktOoO-10" edge="1">
          <mxGeometry relative="1" as="geometry">
            <mxPoint x="560" y="230" as="sourcePoint" />
            <mxPoint x="560" y="430" as="targetPoint" />
          </mxGeometry>
        </mxCell>
        <mxCell id="1ZqsdgjK_K13dOiktOoO-10" value="3" style="ellipse;whiteSpace=wrap;html=1;aspect=fixed;fontSize=15;fillColor=#FF99CC;" parent="1" vertex="1">
          <mxGeometry x="550" y="282" width="20" height="20" as="geometry" />
        </mxCell>
        <mxCell id="1ZqsdgjK_K13dOiktOoO-28" style="edgeStyle=orthogonalEdgeStyle;curved=1;rounded=0;orthogonalLoop=1;jettySize=auto;html=1;entryX=0.5;entryY=0;entryDx=0;entryDy=0;" parent="1" source="1ZqsdgjK_K13dOiktOoO-10" target="1ZqsdgjK_K13dOiktOoO-7" edge="1">
          <mxGeometry relative="1" as="geometry" />
        </mxCell>
        <mxCell id="1ZqsdgjK_K13dOiktOoO-30" value="&lt;font face=&quot;Courier New&quot;&gt;git pull origin&lt;/font&gt;" style="text;html=1;strokeColor=none;fillColor=#FFFFFF;align=center;verticalAlign=middle;whiteSpace=wrap;rounded=0;fontSize=14;shadow=0;" parent="1" vertex="1">
          <mxGeometry x="526" y="341.5" width="74" height="53" as="geometry" />
        </mxCell>
        <mxCell id="1ZqsdgjK_K13dOiktOoO-33" value="&lt;font face=&quot;Courier New&quot;&gt;git push origin&lt;/font&gt;" style="text;html=1;strokeColor=none;fillColor=#FFFFFF;align=center;verticalAlign=middle;whiteSpace=wrap;rounded=0;fontSize=14;shadow=0;" parent="1" vertex="1">
          <mxGeometry x="375" y="341.5" width="74" height="53" as="geometry" />
        </mxCell>
        <mxCell id="1ZqsdgjK_K13dOiktOoO-34" value="Prod&lt;br&gt;Website" style="rounded=0;whiteSpace=wrap;html=1;fontSize=14;fillColor=#A0FF00;" parent="1" vertex="1">
          <mxGeometry x="770" y="110" width="80" height="40" as="geometry" />
        </mxCell>
        <mxCell id="1ZqsdgjK_K13dOiktOoO-35" value="Test&lt;br&gt;Website" style="rounded=0;whiteSpace=wrap;html=1;fontSize=14;fillColor=#A0FF00;" parent="1" vertex="1">
          <mxGeometry x="770" y="190" width="80" height="40" as="geometry" />
        </mxCell>
        <mxCell id="1ZqsdgjK_K13dOiktOoO-38" value="Deploy" style="text;html=1;strokeColor=none;fillColor=none;align=center;verticalAlign=middle;whiteSpace=wrap;rounded=0;fontSize=14;" parent="1" vertex="1">
          <mxGeometry x="660" y="100" width="50" height="30" as="geometry" />
        </mxCell>
        <mxCell id="1ZqsdgjK_K13dOiktOoO-39" value="Deploy" style="text;html=1;strokeColor=none;fillColor=none;align=center;verticalAlign=middle;whiteSpace=wrap;rounded=0;fontSize=14;" parent="1" vertex="1">
          <mxGeometry x="660" y="180" width="50" height="30" as="geometry" />
        </mxCell>
        <mxCell id="1ZqsdgjK_K13dOiktOoO-42" value="PR" style="text;html=1;strokeColor=none;fillColor=none;align=center;verticalAlign=middle;whiteSpace=wrap;rounded=0;fontSize=14;" parent="1" vertex="1">
          <mxGeometry x="399" y="220" width="50" height="30" as="geometry" />
        </mxCell>
        <mxCell id="1ZqsdgjK_K13dOiktOoO-46" style="edgeStyle=orthogonalEdgeStyle;curved=1;rounded=0;orthogonalLoop=1;jettySize=auto;html=1;entryX=0;entryY=0.5;entryDx=0;entryDy=0;exitX=0.5;exitY=0;exitDx=0;exitDy=0;" parent="1" source="1ZqsdgjK_K13dOiktOoO-12" target="1ZqsdgjK_K13dOiktOoO-3" edge="1">
          <mxGeometry relative="1" as="geometry">
            <Array as="points">
              <mxPoint x="461" y="210" />
            </Array>
          </mxGeometry>
        </mxCell>
        <mxCell id="1ZqsdgjK_K13dOiktOoO-12" value="5" style="ellipse;whiteSpace=wrap;html=1;aspect=fixed;fontSize=15;fillColor=#FF99CC;" parent="1" vertex="1">
          <mxGeometry x="451" y="225" width="20" height="20" as="geometry" />
        </mxCell>
        <mxCell id="1ZqsdgjK_K13dOiktOoO-13" value="6" style="ellipse;whiteSpace=wrap;html=1;aspect=fixed;fontSize=15;fillColor=#FF99CC;" parent="1" vertex="1">
          <mxGeometry x="550" y="163" width="20" height="20" as="geometry" />
        </mxCell>
        <mxCell id="1ZqsdgjK_K13dOiktOoO-49" value="Release PR" style="text;html=1;strokeColor=none;fillColor=none;align=center;verticalAlign=middle;whiteSpace=wrap;rounded=0;fontSize=14;" parent="1" vertex="1">
          <mxGeometry x="575" y="155" width="50" height="30" as="geometry" />
        </mxCell>
      </root>
    </mxGraphModel>
  </diagram>
</mxfile>
